<svg xmlns="http://www.w3.org/2000/svg" viewBox="0 0 91.97 95"><defs><style>.cls-1{fill:#fe311f;}.cls-2{fill:#fff;}.cls-3{fill:#eaeaed;}</style></defs><g id="Layer_2" data-name="Layer 2"><g id="Layer_1-2" data-name="Layer 1"><path class="cls-1" d="M75.05,22.87a7.2,7.2,0,1,1-7.2-7.21A7.2,7.2,0,0,1,75.05,22.87Z"/><polygon class="cls-2" points="79.95 95 3.99 95 41.97 57.02 79.95 95"/><path class="cls-2" d="M67.85,0A24.11,24.11,0,0,0,47.6,11C37.67,25.5,50,41,50,41c1,1.37,2.09,2.67,3.12,3.92l.43.54L46,53l38,38V43.23c4-5,8-10.71,8-19.12A24.14,24.14,0,0,0,67.85,0ZM86.32,24.11c0,15.34-17.34,19.73-17.34,38H66.72c0-18.27-17.34-22.66-17.34-38a18.47,18.47,0,0,1,36.94,0Z"/><path class="cls-3" d="M75.05,22.87a7.2,7.2,0,1,1-7.2-7.21A7.2,7.2,0,0,1,75.05,22.87Z"/><path class="cls-2" d="M46.22,44.78,0,91V12.93a1.89,1.89,0,0,1,1.89-1.88h38A35.41,35.41,0,0,0,46.22,44.78Z"/></g></g></svg>