<svg width="345.82" height="89.23" xmlns="http://www.w3.org/2000/svg">
 <defs>
  <linearGradient y2="-2.66152" x2="-6.30905" y1="0.922" x1="1.40765" id="linear-gradient">
   <stop stop-color="#47b6b0" offset="0"/>
   <stop stop-color="#2e7c86" offset="1"/>
  </linearGradient>
 </defs>
 <title>mhrsLogo</title>
 <g>
  <title>Layer 1</title>
  <g data-name="Layer 2" id="Layer_2">
   <g data-name="Layer 1" id="Layer_1-2">
    <path id="svg_1" fill="#dadada" d="m92.03001,19.45004l0,16.93999c-0.49,0 -1,0 -1.53,0a19.54,19.54 0 0 0 -9.78,2.59l0,-19.52999l11.31,0z" class="cls-1"/>
    <path id="svg_2" fill="#94090d" d="m92.03001,10.30004l0,9.14l-11.34,0l0,-9.14a10.28,10.28 0 0 0 -10.28001,-10.3l11.29,0a10.3,10.3 0 0 1 10.33,10.3z" class="cls-2"/>
    <path id="svg_3" fill="#f6f6f6" d="m80.68002,19.45004l0,19.47999l-0.91,0.56a19.07,19.07 0 0 0 -2.07,-1.15a19.71,19.71 0 0 0 -27.79001,13a19.76,19.76 0 0 0 5.22,18.66002l8.46,8.46l-53.26,0a10.29,10.29 0 0 1 -10.3,-10.32l0,-48.69001l80.65001,0z" class="cls-3"/>
    <path id="svg_4" fill="#d40d12" d="m80.69002,10.30004l0,9.14l-80.66001,0l0,-9.14a10.3,10.3 0 0 1 10.3,-10.3l60.08001,0a10.28,10.28 0 0 1 10.28001,10.3z" class="cls-4"/>
    <path id="svg_5" fill="#47b6b0" d="m106.34001,56.05004a15.87,15.87 0 0 1 -4.64,11.23001l-21.91,22l-10.76,-10.84l-11.19001,-11.16a15.89,15.89 0 0 1 21.93001,-23.00002c0.3,-0.26 0.59,-0.53 0.91,-0.76a15.77,15.77 0 0 1 11.35,-3.29a15.88,15.88 0 0 1 14.35,15.82l-0.04,0z" class="cls-5"/>
    <rect id="svg_6" fill="#b2b2b2" rx="2" height="13.59" width="13.59" y="29.19004" x="13.37" class="cls-6"/>
    <rect id="svg_7" fill="url(#linear-gradient)" rx="2" height="13.59" width="13.59" y="29.19004" x="38.72" class="cls-7"/>
    <path id="svg_8" fill="#b2b2b2" d="m77.70001,33.00004l0,5.33a19.67,19.67 0 0 0 -13.58,-1.33l0,-4a3.83,3.83 0 0 1 3.82001,-3.81999l5.93999,0a3.83,3.83 0 0 1 3.82,3.81999z" class="cls-6"/>
    <rect id="svg_9" fill="#b2b2b2" rx="2" height="13.59" width="13.59" y="51.10004" x="13.37" class="cls-6"/>
    <path id="svg_10" fill="#b2b2b2" d="m50.94,63.77005a3.8,3.8 0 0 1 -2.46,0.92001l-5.94,0a3.83,3.83 0 0 1 -3.82,-3.83002l0,-5.94a3.83,3.83 0 0 1 3.82,-3.82l5.94,0a3.65,3.65 0 0 1 1.43,0.29a19.86,19.86 0 0 0 1.03,12.38001z" class="cls-6"/>
    <path id="svg_11" fill="#fff" d="m98.61002,57.69004a3.51,3.51 0 0 1 -1,2.49l-15.53,15.51002a3.4,3.4 0 0 1 -1.93,1a3.13,3.13 0 0 1 -1.22,0a3.46,3.46 0 0 1 -1.93,-1l-7.39,-7.41a3.5,3.5 0 0 1 0,-5.00001a3.47,3.47 0 0 1 2.48,-1a3.5,3.5 0 0 1 2.49001,1l5,5.00001l13.03,-13.07001a3.52,3.52 0 0 1 6,2.48z" class="cls-8"/>
    <path id="svg_12" d="m139.15001,38.45004l0,-14.41999l-7,11.99999l-1.26999,0l-7.00001,-11.93999l0,14.35999l-2.64,0l0,-19.8l2.26,0l8,13.91999l7.94,-13.91999l2.25999,0l0,19.8l-2.55,0z"/>
    <path id="svg_13" d="m159.53001,31.86004l-11.86,0a5,5 0 0 0 5.3,4.39a5.42,5.42 0 0 0 4.22,-1.81l1.45999,1.75a7.28,7.28 0 0 1 -5.76999,2.43c-4.71001,0 -7.85001,-3.19 -7.85001,-7.66s3.11,-7.64 7.33,-7.64s7.22,3.11 7.22,7.72a7.83,7.83 0 0 1 -0.05,0.82zm-11.86,-1.95l9.36,0a4.71,4.71 0 0 0 -9.38,0l0.02,0z"/>
    <path id="svg_14" d="m170.28001,23.32004l0,2.68a4.23,4.23 0 0 0 -0.60001,0c-2.84,0 -4.61,1.78 -4.61,5.07l0,7.46l-2.64,0l0,-14.99999l2.53,0l0,2.47c0.94,-1.78 2.76001,-2.68 5.32001,-2.68z"/>
    <path id="svg_15" d="m178.39001,31.47004l-3,2.87999l0,4.1l-2.64999,0l0,-20.99999l2.64999,0l0,13.48l8,-7.47l3.2,0l-6.14999,6.2l6.75,8.79l-3.25,0l-5.55,-6.98z"/>
    <path id="svg_16" d="m201.42001,31.86004l-11.86,0a5,5 0 0 0 5.29001,4.39a5.41,5.41 0 0 0 4.17999,-1.81l1.46001,1.75a7.24,7.24 0 0 1 -5.76001,2.43c-4.70999,0 -7.86,-3.19 -7.86,-7.66a7.26,7.26 0 0 1 7.34,-7.64c4.21001,0 7.22,3.11 7.22,7.72c0.04001,0.23 0.01001,0.57 -0.00999,0.82zm-11.86,-1.95l9.37,0a4.7,4.7 0 0 0 -9.37,0z"/>
    <path id="svg_17" d="m215.03001,36.22004l0,2.23l-12.25999,0l0,-1.75l8.63,-10.99999l-8.47002,0l0,-2.24l11.86,0l0,1.78l-8.63,11l8.87001,-0.02z"/>
    <path id="svg_18" d="m217.24002,18.82004a1.77,1.77 0 0 1 1.78999,-1.82a1.73,1.73 0 0 1 1.78999,1.72a1.8,1.8 0 0 1 -3.59,0.06l0.01001,0.04zm0.47,4.64l2.65001,0l0,14.99999l-2.65001,0l0,-14.99999z"/>
    <path id="svg_19" fill="#47b6b0" d="m248.95001,18.65004l0,19.8l-5.45999,0l0,-7.72l-7.46001,0l0,7.72l-5.46001,0l0,-19.8l5.46001,0l0,7.44l7.44,0l0,-7.44l5.48,0z" class="cls-5"/>
    <path id="svg_20" fill="#47b6b0" d="m266.92996,32.15004l-10.89999,0a3.46,3.46 0 0 0 3.67001,2.46a4.73,4.73 0 0 0 3.43997,-1.33l2.76001,2.94c-1.42999,1.64 -3.53,2.49 -6.37,2.49c-5.31996,0 -8.76996,-3.37 -8.76996,-7.95s3.5,-7.89 8.21997,-7.89c4.40997,0 8,2.88 8,8c0.04999,0.34 -0.02002,0.84999 -0.05002,1.27999zm-10.89999,-2.83l6.12,0a3.1,3.1 0 0 0 -6.12,0z" class="cls-5"/>
    <path id="svg_21" fill="#47b6b0" d="m275.39996,33.08004l-1.54999,1.61l0,3.76l-5.23001,0l0,-20.99999l5.23001,0l0,11l5.35001,-5.35l6.20999,0l-6.20999,6.56l6.72998,8.76999l-6.34,0l-4.19,-5.35z" class="cls-5"/>
    <path id="svg_22" fill="#47b6b0" d="m286.02997,18.57004a2.92,2.92 0 0 1 3.20001,-2.86c1.92999,0 3.19998,1.16 3.19998,2.77a3.22,3.22 0 0 1 -6.39999,0.09zm0.57999,4.55l5.24002,0l0,15.32999l-5.24002,0l0,-15.32999z" class="cls-5"/>
    <path id="svg_23" fill="#47b6b0" d="m319.95996,29.68004l0,8.76999l-5.23999,0l0,-7.89c0,-2.21 -0.88,-3.14 -2.26001,-3.14s-2.62,1 -2.62,3.42l0,7.61l-5.24002,0l0,-7.89c0,-2.21 -0.85999,-3.14 -2.25998,-3.14c-1.55002,0 -2.64999,1 -2.64999,3.42l0,7.61l-5.24002,0l0,-15.32999l5,0l0,1.61a5.89,5.89 0 0 1 4.47,-1.86a5.43,5.43 0 0 1 4.83002,2.4a6.38,6.38 0 0 1 5.17999,-2.4c3.45999,0 6.03,2.06 6.03,6.81z" class="cls-5"/>
    <path id="svg_24" fill="#d40d12" d="m128.73001,58.00004l-3,0l0,5.27001l-5.46,0l0,-19.80001l8.83001,0c5.25999,0 8.56999,2.8 8.56999,7.33a6.59,6.59 0 0 1 -3.78,6.25l4.17,6.23l-5.83,0l-3.5,-5.28zm0.05,-10.12l-3,0l0,5.79l3,0c2.27,0 3.39999,-1.07 3.39999,-2.88s-1.14999,-2.9 -3.39999,-2.9l0,-0.01z" class="cls-4"/>
    <path id="svg_25" fill="#d40d12" d="m153.49002,54.76004l0,8.52l-4.87999,0l0,-2c-0.74001,1.48 -2.23001,2.24001 -4.41,2.24001c-3.59,0 -5.57001,-2.07001 -5.57001,-4.72001c0,-2.83 2,-4.59 6.64,-4.59l3,0c-0.08,-1.55 -1.09999,-2.43 -3.17,-2.43a6.84,6.84 0 0 0 -4.07001,1.34l-1.77,-3.65a12.32,12.32 0 0 1 6.59001,-1.78c4.85999,0 7.64,2.2 7.64,7.07zm-5.23999,3.59l0,-1.35l-2.22002,0c-1.67999,0 -2.28999,0.63 -2.28999,1.56s0.71999,1.55 2,1.55a2.57,2.57 0 0 0 2.50999,-1.76l0.00002,0z" class="cls-4"/>
    <path id="svg_26" fill="#d40d12" d="m171.88002,54.51004l0,8.77l-5.23999,0l0,-7.9c0,-2.2 -0.93001,-3.14 -2.45001,-3.14c-1.67999,0 -3,1.08 -3,3.62l0,7.42l-5.23999,0l0,-15.34l5,0l0,1.67a6.36,6.36 0 0 1 4.75,-1.92c3.50998,0 6.17999,2.06 6.17999,6.82z" class="cls-4"/>
    <path id="svg_27" fill="#d40d12" d="m190.44002,42.28004l0,21l-5,0l0,-1.53a5.31,5.31 0 0 1 -4.41,1.78c-4.08,0 -7.37,-3.06 -7.37,-8s3.37,-7.84 7.37,-7.84a5.38,5.38 0 0 1 4.13,1.58l0,-7l5.28,0.01zm-5.16,13.3c0,-2.32 -1.35001,-3.62 -3.11,-3.62s-3.14,1.3 -3.14,3.62s1.35001,3.68 3.14,3.68s3.11,-1.33 3.11,-3.68z" class="cls-4"/>
    <path id="svg_28" fill="#d40d12" d="m208.17001,57.00004l-10.86,0a3.45,3.45 0 0 0 3.66,2.46a4.74,4.74 0 0 0 3.45,-1.33l2.75999,2.87c-1.43001,1.64 -3.53,2.49001 -6.37001,2.49001c-5.31999,0 -8.76999,-3.37001 -8.76999,-8.00001s3.5,-7.89 8.22,-7.89c4.40999,0 8,2.88 8,8c-0.00999,0.4 -0.06,0.94 -0.09,1.4zm-10.95,-2.83l6.13,0a3.1,3.1 0 0 0 -6.13,0z" class="cls-4"/>
    <path id="svg_29" fill="#d40d12" d="m225.32001,47.94004l-6.17,15.34l-5.41,0l-6.14999,-15.34l5.37999,0l3.58,9.37l3.78,-9.37l4.99001,0z" class="cls-4"/>
    <path id="svg_30" fill="#d40d12" d="m241.56001,47.94004l0,15.34l-5,0l0,-1.65a5.8,5.8 0 0 1 -4.44,1.9c-3.66,0 -6.34,-2.15 -6.34,-7l0,-8.59l5.25,0l0,7.7c0,2.37 0.91,3.31 2.48,3.31s2.81,-1.05 2.81,-3.62l0,-7.39l5.24001,0z" class="cls-4"/>
    <path id="svg_31" d="m250.75002,61.00004l1,-2.2a9.81,9.81 0 0 0 6.36995,2.29c3.33002,0 4.76999,-1.33 4.76999,-3.06c0,-4.84 -11.68994,-1.78 -11.68994,-9.14c0,-3 2.31,-5.65 7.37994,-5.65a11.15,11.15 0 0 1 6.23001,1.76l-0.91,2.26a9.82,9.82 0 0 0 -5.29999,-1.61c-3.27997,0 -4.67996,1.42 -4.67996,3.14c0,4.84 11.68994,1.81 11.68994,9.08c0,3 -2.37,5.63 -7.47,5.63a11.27,11.27 0 0 1 -7.38994,-2.5z"/>
    <path id="svg_32" d="m267.94998,43.64004a1.76,1.76 0 0 1 1.79999,-1.78a1.74,1.74 0 0 1 1.79001,1.73a1.8,1.8 0 0 1 -3.59,0l0,0.05zm0.47,4.64l2.60999,0l0,15l-2.64999,0l0.04001,-15z"/>
    <path id="svg_33" d="m273.43997,61.69004l1.10001,-2.15a9.2,9.2 0 0 0 5.13,1.56c2.44998,0 3.47998,-0.77 3.47998,-2c0,-3.37 -9.23999,-0.45 -9.23999,-6.42c0,-2.69 2.34,-4.5 6.09,-4.5a10.36,10.36 0 0 1 5.32001,1.36l-1.13,2.15a7.45,7.45 0 0 0 -4.22,-1.19c-2.31,0 -3.44,0.88 -3.44,2.07c0,3.53 9.26001,0.65 9.26001,6.47c0,2.72 -2.42001,4.44001 -6.31,4.44001a10.35,10.35 0 0 1 -6.04001,-1.79001z"/>
    <path id="svg_34" d="m296.48996,62.40004a4.89,4.89 0 0 1 -3.20001,1c-2.94998,0 -4.62997,-1.66 -4.62997,-4.69001l0,-8.19l-2.48001,0l0,-2.24l2.48001,0l0,-3.28l2.64999,0l0,3.28l4.19,0l0,2.24l-4.19,0l0,8.12c0,1.61 0.81998,2.51 2.28998,2.51a3.27,3.27 0 0 0 2.06003,-0.7l0.82999,1.95z"/>
    <path id="svg_35" d="m311.51996,56.68004l-11.85999,0a5,5 0 0 0 5.30002,4.39a5.38,5.38 0 0 0 4.20999,-1.81l1.46997,1.74a7.25,7.25 0 0 1 -5.76999,2.43c-4.70999,0 -7.85001,-3.19 -7.85001,-7.66s3.10999,-7.64 7.32999,-7.64s7.22,3.11 7.22,7.72a7.83,7.83 0 0 1 -0.04999,0.83zm-11.85999,-2l9.37,0a4.71,4.71 0 0 0 -9.38,0l0.01001,0z"/>
    <path id="svg_36" d="m338.67996,54.65004l0,8.63l-2.64999,0l0,-8.28c0,-2.94 -1.38,-4.39 -3.78,-4.39c-2.64001,0 -4.38,1.73 -4.38,5l0,7.73l-2.64999,0l0,-8.34c0,-2.94 -1.38,-4.39 -3.76999,-4.39c-2.65002,0 -4.39001,1.73 -4.39001,5l0,7.73l-2.63998,0l0,-15l2.53,0l0,2.24a5.87,5.87 0 0 1 5.07999,-2.44a5.38,5.38 0 0 1 5,2.77a6.54,6.54 0 0 1 5.63,-2.77c3.59,0 6.01999,2.09 6.01999,6.51z"/>
    <path id="svg_37" d="m342.26996,43.64004a1.76,1.76 0 0 1 1.76001,-1.78a1.73,1.73 0 0 1 1.79001,1.73a1.79,1.79 0 0 1 -3.58002,0l0.03,0.05zm0.45999,4.64l2.64999,0l0,15l-2.64996,0l-0.00003,-15z"/>
   </g>
  </g>
  <path stroke-width="0" id="svg_38" d="m112.09,7.61499l237,0l0,74l-237,0l0,-74z" opacity="undefined" stroke="#000" fill="#ffffff"/>
  <text font-style="normal" font-weight="bold" xml:space="preserve" text-anchor="start" font-family="'Work Sans'" font-size="30" stroke-width="0" id="svg_41" y="35.61499" x="112.09" stroke="#000" fill="#000000">Koç University</text>
  <text font-weight="bold" xml:space="preserve" text-anchor="start" font-family="'Work Sans'" font-size="30" id="svg_42" y="74.61499" x="168.09" stroke-width="0" stroke="#000" fill="#000000">MHRS</text>
 </g>
</svg>